<?xml version="1.0" standalone="no"?>
<svg xmlns="http://www.w3.org/2000/svg" viewBox="0 0 70.8 26.265" width="70.8" height="26.265"><path fill="#000000" fill-rule="nonzero" d="M7.85 16.70L0.10 16.70Q0 16.70 0 16.58L0 16.58L0.02 0.10Q0.02 0 0.12 0L0.12 0L7.82 0Q7.92 0 7.92 0.12L7.92 0.12L7.92 2.81Q7.92 2.90 7.82 2.90L7.82 2.90L2.90 2.90L2.90 6.65L7.82 6.65Q7.92 6.65 7.92 6.74L7.92 6.74L7.94 9.46Q7.94 9.55 7.85 9.55L7.85 9.55L2.90 9.55L2.90 13.75L7.85 13.75Q7.94 13.75 7.94 13.87L7.94 13.87L7.94 16.61Q7.94 16.70 7.85 16.70L7.85 16.70ZM15.19 16.70L12.29 16.70Q12.19 16.70 12.17 16.58L12.17 16.58L9.34 0.10Q9.31 0 9.41 0L9.41 0L12.10 0Q12.19 0 12.22 0.10L12.22 0.10L13.75 10.94L15.34 0.10Q15.36 0 15.48 0L15.48 0L17.64 0Q17.74 0 17.76 0.10L17.76 0.10L19.32 10.94L20.88 0.10Q20.90 0 21 0L21 0L23.66 0Q23.78 0 23.76 0.10L23.76 0.10L20.90 16.58Q20.88 16.63 20.83 16.67Q20.78 16.70 20.78 16.70L20.78 16.70L17.88 16.70Q17.81 16.70 17.76 16.58L17.76 16.58L16.54 7.97L15.31 16.58Q15.29 16.70 15.19 16.70L15.19 16.70Z" transform="translate(0, 4.781)"></path><line x1="32.764" y1="2%" x2="32.764" y2="98%" stroke="#000000" stroke-linecap="round"></line><g fill="#ffe100" color="#ffe100" transform="translate(41.764 0) scale(0.5471699)"><svg width="53.0" height="48.0" x="0.0" y="0.0" viewBox="0 0 53 48"><path fill="currentColor" fill-rule="evenodd" d="M14.18 0L0 8.432v16.864l14.18 8.435L24 27.846v11.72L38.181 48l14.181-8.434V22.704l-14.181-8.433-9.818 5.883V8.432L14.18 0zM4.364 22.814V10.915l9.817-5.84L24 10.915v11.853l-9.819 5.885-9.817-5.839zm23.999 14.27V25.23l9.818-5.884 9.818 5.837v11.9L38.18 42.92l-9.818-5.837z"></path></svg></g></svg>